<svg id="notification-favorite_bold" data-name="notification-favorite/bold" xmlns="http://www.w3.org/2000/svg" width="24" height="24" viewBox="0 0 24 24">
  <g id="vuesax_bold_notification-favorite" data-name="vuesax/bold/notification-favorite">
    <g id="notification-favorite">
      <path id="Vector" d="M6,3A3,3,0,1,1,3,0,3,3,0,0,1,6,3Z" transform="translate(16 2)" fill="#fff"/>
      <path id="Vector-2" data-name="Vector" d="M17.8,6.42c-.03.01-.06.01-.09.02-.08.01-.15.02-.24.03A3.593,3.593,0,0,1,17,6.5a4.159,4.159,0,0,1-1.23-.18,2.459,2.459,0,0,1-.48-.16,3.745,3.745,0,0,1-.45-.22,4.483,4.483,0,0,1-1.78-1.78,3.745,3.745,0,0,1-.22-.45,2.459,2.459,0,0,1-.16-.48A4.159,4.159,0,0,1,12.5,2a3.593,3.593,0,0,1,.03-.47c.01-.09.02-.16.03-.24.01-.03.01-.06.02-.09A1,1,0,0,0,11.6,0H5.52c-.14,0-.28.01-.41.02s-.23.02-.35.04-.24.03-.35.05a4.769,4.769,0,0,0-4.3,4.3c-.02.11-.04.23-.05.35s-.03.23-.04.35S0,5.38,0,5.52v7.96c0,.14.01.28.02.41s.02.23.04.35.03.24.05.35a4.769,4.769,0,0,0,4.3,4.3c.11.02.23.04.35.05s.23.03.35.04.27.02.41.02h7.96c.14,0,.28-.01.41-.02s.23-.02.35-.04.24-.03.35-.05a4.769,4.769,0,0,0,4.3-4.3c.02-.11.04-.23.05-.35s.03-.23.04-.35.02-.27.02-.41V7.4A1,1,0,0,0,17.8,6.42Zm-7.52,5.83A4,4,0,0,1,7.3,14.82a3.95,3.95,0,0,1-2.97-2.57H4.32A2.326,2.326,0,0,1,5.64,9.28a1.786,1.786,0,0,1,1.65.27,1.821,1.821,0,0,1,1.67-.27A2.326,2.326,0,0,1,10.28,12.25Z" transform="translate(2 3)" fill="#fff"/>
      <path id="Vector-3" data-name="Vector" d="M0,0H24V24H0Z" transform="translate(24 24) rotate(180)" fill="none" opacity="0"/>
    </g>
  </g>
</svg>
