<svg id="vuesax_bulk_mobile-programming" data-name="vuesax/bulk/mobile-programming" xmlns="http://www.w3.org/2000/svg" width="48" height="48" viewBox="0 0 48 48">
  <g id="mobile-programming">
    <path id="Vector" d="M0,0H48V48H0Z" fill="none" opacity="0"/>
    <path id="Vector-2" data-name="Vector" d="M10,0A10,10,0,1,0,20,10,10,10,0,0,0,10,0ZM8.32,12.54a1.316,1.316,0,0,1,0,1.84,1.3,1.3,0,0,1-1.84,0L3.02,10.92a1.316,1.316,0,0,1,0-1.84L6.48,5.62A1.3,1.3,0,0,1,8.32,7.46L5.78,10Zm8.64-1.62L13.5,14.38a1.3,1.3,0,0,1-1.84,0,1.316,1.316,0,0,1,0-1.84L14.2,10,11.66,7.46A1.3,1.3,0,1,1,13.5,5.62l3.46,3.46A1.316,1.316,0,0,1,16.96,10.92Z" transform="translate(26 26)" fill="#5fad51"/>
    <path id="Vector-3" data-name="Vector" d="M36,10V24a9.882,9.882,0,0,0-6-2,10,10,0,0,0-6,18H10C3,40,0,36,0,30V10C0,4,3,0,10,0h1.86l.08,3.06a3.023,3.023,0,0,0,3,2.94H21a3.022,3.022,0,0,0,3-3V0h2C33,0,36,4,36,10Z" transform="translate(6 4)" fill="#5fad51" opacity="0.4"/>
    <path id="Vector-4" data-name="Vector" d="M12.14,0V3a3.022,3.022,0,0,1-3,3H3.08a3.023,3.023,0,0,1-3-2.94L0,0Z" transform="translate(17.86 4)" fill="#5fad51"/>
  </g>
</svg>
