<svg id="vuesax_bulk_presention-chart" data-name="vuesax/bulk/presention-chart" xmlns="http://www.w3.org/2000/svg" width="48" height="48" viewBox="0 0 48 48">
  <g id="presention-chart">
    <path id="Vector" d="M0,0H48V48H0Z" fill="none" opacity="0"/>
    <path id="Vector-2" data-name="Vector" d="M36,0V24.2C36,28,34,30,30.2,30H5.8C2,30,0,28,0,24.2V0Z" transform="translate(6 4)" fill="#5fad51" opacity="0.4"/>
    <g id="Group" transform="translate(2.5 2.5)">
      <path id="Vector-3" data-name="Vector" d="M41.5,3H1.5A1.511,1.511,0,0,1,0,1.5,1.511,1.511,0,0,1,1.5,0h40A1.511,1.511,0,0,1,43,1.5,1.511,1.511,0,0,1,41.5,3Z" fill="#5fad51"/>
    </g>
    <path id="Vector-4" data-name="Vector" d="M18.844,10.68a1.505,1.505,0,0,1-1.34.82,1.528,1.528,0,0,1-.66-.16L9.5,7.68l-7.34,3.66a1.528,1.528,0,0,1-.66.16,1.505,1.505,0,0,1-1.34-.82,1.48,1.48,0,0,1,.68-2.02L8,5.08V0h3V5.08l7.16,3.58A1.48,1.48,0,0,1,18.844,10.68Z" transform="translate(14.496 34)" fill="#5fad51"/>
    <g id="Group-2" data-name="Group" transform="translate(13.49 14.49)">
      <path id="Vector-5" data-name="Vector" d="M1.51,9.01A1.517,1.517,0,0,1,.35,8.47a1.5,1.5,0,0,1,.2-2.12l6.3-5.26A2.514,2.514,0,0,1,8.87.53a2.477,2.477,0,0,1,1.72,1.2l2.1,3.5L18.55.35a1.506,1.506,0,1,1,1.92,2.32l-6.3,5.26a2.514,2.514,0,0,1-2.02.56,2.477,2.477,0,0,1-1.72-1.2l-2.1-3.5L2.47,8.67A1.563,1.563,0,0,1,1.51,9.01Z" fill="#5fad51"/>
    </g>
  </g>
</svg>
