<svg id="vuesax_bulk_lamp-charge" data-name="vuesax/bulk/lamp-charge" xmlns="http://www.w3.org/2000/svg" width="48" height="48" viewBox="0 0 48 48">
  <g id="lamp-charge">
    <path id="Vector" d="M30.48,8.715A15.83,15.83,0,0,0,19.72.4a16.157,16.157,0,0,0-13.7,3.16A15.945,15.945,0,0,0,0,16.1c0,5.18,3.1,10.6,7.78,13.74V31.5a2.683,2.683,0,0,0,.64,2.12,3.45,3.45,0,0,0,2.56.8H21.24a3.341,3.341,0,0,0,2.46-.86,2.991,2.991,0,0,0,.72-2.32v-1.4C30.62,25.655,34.52,16.835,30.48,8.715Z" transform="translate(7.94 4.005)" fill="#5fad51" opacity="0.4"/>
    <path id="Vector-2" data-name="Vector" d="M14.417,3.7a1.256,1.256,0,0,1-.38-.06,22.4,22.4,0,0,0-12.26,0,1.4,1.4,0,0,1-1.72-.96A1.381,1.381,0,0,1,1.017.96a25.277,25.277,0,0,1,13.8,0,1.389,1.389,0,0,1,.96,1.72A1.446,1.446,0,0,1,14.417,3.7Z" transform="translate(16.103 40.3)" fill="#5fad51"/>
    <path id="Vector-3" data-name="Vector" d="M3.844,13.413a1.373,1.373,0,0,1-.74-.2,1.509,1.509,0,0,1-.56-2.04l1.7-2.96H2.564A2.535,2.535,0,0,1,.3,7.033a2.512,2.512,0,0,1,.1-2.56L2.544.753a1.5,1.5,0,1,1,2.6,1.48l-1.7,2.98h1.68a2.535,2.535,0,0,1,2.26,1.18,2.512,2.512,0,0,1-.1,2.56l-2.14,3.72A1.492,1.492,0,0,1,3.844,13.413Z" transform="translate(20.156 14.287)" fill="#5fad51"/>
    <path id="Vector-4" data-name="Vector" d="M0,0H48V48H0Z" fill="none" opacity="0"/>
  </g>
</svg>
