<svg id="vuesax_bulk_path-square" data-name="vuesax/bulk/path-square" xmlns="http://www.w3.org/2000/svg" width="48" height="48" viewBox="0 0 48 48">
  <g id="path-square">
    <path id="Vector" d="M28.38,0H11.62C4.34,0,0,4.34,0,11.62V28.36C0,35.66,4.34,40,11.62,40H28.36c7.28,0,11.62-4.34,11.62-11.62V11.62C40,4.34,35.66,0,28.38,0Z" transform="translate(4 4)" fill="#5fad51" opacity="0.4"/>
    <path id="Vector-2" data-name="Vector" d="M9.84,8.962,6.6,11,0,4.422l2.06-3.26C3-.318,4.92-.4,6.32,1l3.7,3.7A2.713,2.713,0,0,1,9.84,8.962Z" transform="translate(23.48 13.538)" fill="#5fad51"/>
    <path id="Vector-3" data-name="Vector" d="M13.593,15.579l-10.14,1.2a2.747,2.747,0,0,1-1.22-.08,2.692,2.692,0,0,1-2.12-2.12,2.747,2.747,0,0,1-.08-1.22l1.18-10.14c.32-2.54,1.24-3.36,3.92-3.2L9.913.3l6.6,6.58.28,4.8C17.053,14.359,16.133,15.279,13.593,15.579Z" transform="translate(13.567 17.661)" fill="#5fad51" opacity="0.6"/>
    <path id="Vector-4" data-name="Vector" d="M6.08,2.555,2.12,6.515A2.692,2.692,0,0,1,0,4.4L3.94.435a1.533,1.533,0,0,1,2.14,0A1.509,1.509,0,0,1,6.08,2.555Z" transform="translate(13.68 27.845)" fill="#5fad51"/>
    <path id="Vector-5" data-name="Vector" d="M0,0H48V48H0Z" fill="none" opacity="0"/>
  </g>
</svg>
