<svg id="vuesax_bulk_messages-3" data-name="vuesax/bulk/messages-3" xmlns="http://www.w3.org/2000/svg" width="30" height="30" viewBox="0 0 30 30">
  <g id="messages-3">
    <path id="Vector" d="M0,0H30V30H0Z" fill="none" opacity="0"/>
    <path id="Vector-2" data-name="Vector" d="M21.25,5.313v6.375a5.282,5.282,0,0,1-1.462,3.85A5.282,5.282,0,0,1,15.938,17v2.262a1.062,1.062,0,0,1-1.65.888l-1.212-.8a4.536,4.536,0,0,0,.162-1.263V13a4.015,4.015,0,0,0-4.25-4.25H.5c-.175,0-.337.013-.5.025V5.313A5.019,5.019,0,0,1,5.313,0H15.938A5.019,5.019,0,0,1,21.25,5.313Z" transform="translate(6.25 2.5)" fill="#5fad51" opacity="0.4"/>
    <path id="Vector-3" data-name="Vector" d="M16.987,4.25V9.337a4.537,4.537,0,0,1-.162,1.263,3.944,3.944,0,0,1-4.088,2.988h-3.4L5.562,16.1a.839.839,0,0,1-1.313-.7V13.587a4.247,4.247,0,0,1-3.075-1.162A4.255,4.255,0,0,1,0,9.337V4.25A3.979,3.979,0,0,1,3.75.025C3.913.013,4.075,0,4.25,0h8.488A4.015,4.015,0,0,1,16.987,4.25Z" transform="translate(2.5 11.25)" fill="#5fad51"/>
  </g>
</svg>
