<svg xmlns="http://www.w3.org/2000/svg" width="30" height="30" viewBox="0 0 30 30">
  <g id="vuesax_bulk_task-square" data-name="vuesax/bulk/task-square" transform="translate(-2 -2)">
    <g id="task-square" transform="translate(2 2)">
      <path id="Vector" d="M21.285,0H8.715C3.255,0,0,3.255,0,8.715v12.57C0,26.745,3.255,30,8.715,30h12.57C26.745,30,30,26.745,30,21.285V8.715C30,3.255,26.745,0,21.285,0Z" fill="#5fad51" opacity="0.4"/>
      <path id="Vector-2" data-name="Vector" d="M10.125,1.125A1.123,1.123,0,0,1,9,2.25H1.125A1.133,1.133,0,0,1,0,1.125,1.133,1.133,0,0,1,1.125,0H9A1.123,1.123,0,0,1,10.125,1.125Z" transform="translate(14.34 9.18)" fill="#5fad51"/>
      <path id="Vector-3" data-name="Vector" d="M6.428,1.916,3.052,5.291a1.113,1.113,0,0,1-.795.33,1.088,1.088,0,0,1-.8-.33L.338,4.166a1.105,1.105,0,0,1,0-1.59,1.132,1.132,0,0,1,1.59,0l.33.33L4.837.326a1.124,1.124,0,1,1,1.59,1.59Z" transform="translate(5.528 6.934)" fill="#5fad51"/>
      <path id="Vector-4" data-name="Vector" d="M10.125,1.125A1.123,1.123,0,0,1,9,2.25H1.125A1.133,1.133,0,0,1,0,1.125,1.133,1.133,0,0,1,1.125,0H9A1.123,1.123,0,0,1,10.125,1.125Z" transform="translate(14.34 19.68)" fill="#5fad51"/>
      <path id="Vector-5" data-name="Vector" d="M6.428,1.916,3.052,5.291a1.113,1.113,0,0,1-.795.33,1.088,1.088,0,0,1-.8-.33L.338,4.166a1.105,1.105,0,0,1,0-1.59,1.132,1.132,0,0,1,1.59,0l.33.33L4.837.326a1.124,1.124,0,1,1,1.59,1.59Z" transform="translate(5.528 17.434)" fill="#5fad51"/>
    </g>
  </g>
</svg>
