<svg id="vuesax_bulk_code" data-name="vuesax/bulk/code" xmlns="http://www.w3.org/2000/svg" width="48" height="48" viewBox="0 0 48 48">
  <g id="code">
    <path id="Vector" d="M40,0V16.38C40,23.66,35.66,28,28.38,28H11.62C4.34,28,0,23.66,0,16.38V.02Z" transform="translate(4 16)" fill="#5fad51" opacity="0.4"/>
    <path id="Vector-2" data-name="Vector" d="M5.08,11a1.528,1.528,0,0,1-.66-.16A10.035,10.035,0,0,1,.6,7.461a3.534,3.534,0,0,1,0-3.94A9.822,9.822,0,0,1,4.42.161a1.508,1.508,0,0,1,2.02.68,1.491,1.491,0,0,1-.68,2.02A6.884,6.884,0,0,0,3.1,5.221a.579.579,0,0,0,0,.62A6.884,6.884,0,0,0,5.76,8.2a1.525,1.525,0,0,1,.68,2.02A1.6,1.6,0,0,1,5.08,11Z" transform="translate(12.92 24.499)" fill="#5fad51"/>
    <path id="Vector-3" data-name="Vector" d="M1.5,11.032a1.5,1.5,0,0,1-.66-2.84A6.884,6.884,0,0,0,3.5,5.832a.579.579,0,0,0,0-.62,6.884,6.884,0,0,0-2.66-2.36A1.525,1.525,0,0,1,.164.832a1.525,1.525,0,0,1,2.02-.68A10.035,10.035,0,0,1,6,3.532a3.534,3.534,0,0,1,0,3.94,9.822,9.822,0,0,1-3.82,3.36A1.321,1.321,0,0,1,1.5,11.032Z" transform="translate(28.916 24.468)" fill="#5fad51"/>
    <path id="Vector-4" data-name="Vector" d="M40,11.62V12L0,12.02v-.4C0,4.34,4.34,0,11.62,0H28.38C35.66,0,40,4.34,40,11.62Z" transform="translate(4 4)" fill="#5fad51"/>
    <path id="Vector-5" data-name="Vector" d="M0,0H48V48H0Z" fill="none" opacity="0"/>
  </g>
</svg>
